<svg xmlns="http://www.w3.org/2000/svg" viewBox="0 0 160 160" role="img" aria-labelledby="logoTitle logoDesc">
  <title id="logoTitle">Logo Kredit Motor Akmal</title>
  <desc id="logoDesc">Logo placeholder berbentuk lingkaran dengan aksen roda motor.</desc>
  <defs>
    <linearGradient id="bg" x1="20" y1="20" x2="140" y2="140" gradientUnits="userSpaceOnUse">
      <stop offset="0" stop-color="#18345e"/>
      <stop offset="1" stop-color="#f06b2f"/>
    </linearGradient>
    <linearGradient id="wheel" x1="34" y1="110" x2="124" y2="54" gradientUnits="userSpaceOnUse">
      <stop offset="0" stop-color="#ffd39d"/>
      <stop offset="1" stop-color="#ffffff"/>
    </linearGradient>
  </defs>
  <rect width="160" height="160" rx="44" fill="url(#bg)"/>
  <circle cx="55" cy="112" r="16" fill="none" stroke="url(#wheel)" stroke-width="10"/>
  <circle cx="111" cy="112" r="16" fill="none" stroke="url(#wheel)" stroke-width="10"/>
  <path d="M50 87h34l11-18h16l-8 15h11c11 0 20 9 20 20v3h-11c-2-8-8-13-15-13s-13 5-15 13H70c-2-8-8-13-15-13s-13 5-15 13H27v-6c0-8 7-14 15-14h8Z" fill="#fff" opacity=".92"/>
  <path d="M45 59h44" stroke="#fff" stroke-width="10" stroke-linecap="round" opacity=".86"/>
  <path d="M45 59 32 74" stroke="#ffd39d" stroke-width="9" stroke-linecap="round"/>
  <path d="M88 59 106 77" stroke="#ffd39d" stroke-width="9" stroke-linecap="round"/>
  <path d="M120 55c-6 0-11 5-11 11h22c0-6-5-11-11-11Z" fill="#ffd39d"/>
  <text x="80" y="36" text-anchor="middle" font-family="Trebuchet MS, Segoe UI, sans-serif" font-size="16" font-weight="700" fill="#ffffff">KMA</text>
</svg>
